<svg width="521" height="176" viewBox="0 0 521 176" fill="none" xmlns="http://www.w3.org/2000/svg">
<g filter="url(#filter0_d_2507_355)">
<ellipse cx="50" cy="46.5" rx="12" ry="12.5" fill="black"/>
</g>
<g filter="url(#filter1_d_2507_355)">
<ellipse cx="50" cy="79.5" rx="12" ry="12.5" fill="black"/>
</g>
<g filter="url(#filter2_d_2507_355)">
<ellipse cx="84" cy="79.5" rx="12" ry="12.5" fill="black"/>
</g>
<g filter="url(#filter3_d_2507_355)">
<ellipse cx="84" cy="46.5" rx="12" ry="12.5" fill="black"/>
</g>
<g filter="url(#filter4_d_2507_355)">
<circle cx="50" cy="19" r="7" fill="black"/>
</g>
<g filter="url(#filter5_d_2507_355)">
<circle cx="111" cy="46" r="7" fill="black"/>
</g>
<g filter="url(#filter6_d_2507_355)">
<circle cx="111" cy="79" r="7" fill="black"/>
</g>
<g filter="url(#filter7_d_2507_355)">
<circle cx="111" cy="109" r="7" fill="black"/>
</g>
<g filter="url(#filter8_d_2507_355)">
<circle cx="84" cy="109" r="7" fill="black"/>
</g>
<g filter="url(#filter9_d_2507_355)">
<circle cx="50" cy="109" r="7" fill="black"/>
</g>
<g filter="url(#filter10_d_2507_355)">
<circle cx="23" cy="109" r="7" fill="black"/>
</g>
<g filter="url(#filter11_d_2507_355)">
<circle cx="23" cy="79" r="7" fill="black"/>
</g>
<g filter="url(#filter12_d_2507_355)">
<circle cx="23" cy="49" r="7" fill="black"/>
</g>
<g filter="url(#filter13_d_2507_355)">
<circle cx="23" cy="19" r="7" fill="black"/>
</g>
<g filter="url(#filter14_d_2507_355)">
<circle cx="111" cy="19" r="7" fill="black"/>
</g>
<g filter="url(#filter15_d_2507_355)">
<circle cx="84" cy="19" r="7" fill="black"/>
</g>
<g filter="url(#filter16_d_2507_355)">
<path d="M87 3.5C87 5.433 85.433 7 83.5 7C81.567 7 80 5.433 80 3.5C80 1.567 81.567 0 83.5 0C85.433 0 87 1.567 87 3.5Z" fill="black"/>
</g>
<g filter="url(#filter17_d_2507_355)">
<path d="M130 45.5C130 47.433 128.433 49 126.5 49C124.567 49 123 47.433 123 45.5C123 43.567 124.567 42 126.5 42C128.433 42 130 43.567 130 45.5Z" fill="black"/>
</g>
<g filter="url(#filter18_d_2507_355)">
<path d="M130 79.5C130 81.433 128.433 83 126.5 83C124.567 83 123 81.433 123 79.5C123 77.567 124.567 76 126.5 76C128.433 76 130 77.567 130 79.5Z" fill="black"/>
</g>
<g filter="url(#filter19_d_2507_355)">
<path d="M87 124.5C87 126.433 85.433 128 83.5 128C81.567 128 80 126.433 80 124.5C80 122.567 81.567 121 83.5 121C85.433 121 87 122.567 87 124.5Z" fill="black"/>
</g>
<g filter="url(#filter20_d_2507_355)">
<path d="M53 124.5C53 126.433 51.433 128 49.5 128C47.567 128 46 126.433 46 124.5C46 122.567 47.567 121 49.5 121C51.433 121 53 122.567 53 124.5Z" fill="black"/>
</g>
<g filter="url(#filter21_d_2507_355)">
<path d="M11 79.5C11 81.433 9.433 83 7.5 83C5.567 83 4 81.433 4 79.5C4 77.567 5.567 76 7.5 76C9.433 76 11 77.567 11 79.5Z" fill="black"/>
</g>
<g filter="url(#filter22_d_2507_355)">
<path d="M11 49.5C11 51.433 9.433 53 7.5 53C5.567 53 4 51.433 4 49.5C4 47.567 5.567 46 7.5 46C9.433 46 11 47.567 11 49.5Z" fill="black"/>
</g>
<g filter="url(#filter23_d_2507_355)">
<path d="M53 3.5C53 5.433 51.433 7 49.5 7C47.567 7 46 5.433 46 3.5C46 1.567 47.567 0 49.5 0C51.433 0 53 1.567 53 3.5Z" fill="black"/>
</g>
<g filter="url(#filter24_d_2507_355)">
<path d="M149.273 51.5682V43.4545H187.5V51.5682H173.25V90H163.523V51.5682H149.273ZM198.818 90.6591C196.591 90.6591 194.606 90.2727 192.864 89.5C191.121 88.7121 189.742 87.553 188.727 86.0227C187.727 84.4773 187.227 82.553 187.227 80.25C187.227 78.3106 187.583 76.6818 188.295 75.3636C189.008 74.0455 189.977 72.9848 191.205 72.1818C192.432 71.3788 193.826 70.7727 195.386 70.3636C196.962 69.9545 198.614 69.6667 200.341 69.5C202.371 69.2879 204.008 69.0909 205.25 68.9091C206.492 68.7121 207.394 68.4242 207.955 68.0455C208.515 67.6667 208.795 67.1061 208.795 66.3636V66.2273C208.795 64.7879 208.341 63.6742 207.432 62.8864C206.538 62.0985 205.265 61.7045 203.614 61.7045C201.871 61.7045 200.485 62.0909 199.455 62.8636C198.424 63.6212 197.742 64.5758 197.409 65.7273L188.455 65C188.909 62.8788 189.803 61.0455 191.136 59.5C192.47 57.9394 194.189 56.7424 196.295 55.9091C198.417 55.0606 200.871 54.6364 203.659 54.6364C205.598 54.6364 207.455 54.8636 209.227 55.3182C211.015 55.7727 212.598 56.4773 213.977 57.4318C215.371 58.3864 216.47 59.6136 217.273 61.1136C218.076 62.5985 218.477 64.3788 218.477 66.4545V90H209.295V85.1591H209.023C208.462 86.25 207.712 87.2121 206.773 88.0455C205.833 88.8636 204.705 89.5076 203.386 89.9773C202.068 90.4318 200.545 90.6591 198.818 90.6591ZM201.591 83.9773C203.015 83.9773 204.273 83.697 205.364 83.1364C206.455 82.5606 207.311 81.7879 207.932 80.8182C208.553 79.8485 208.864 78.75 208.864 77.5227V73.8182C208.561 74.0152 208.144 74.197 207.614 74.3636C207.098 74.5152 206.515 74.6591 205.864 74.7955C205.212 74.9167 204.561 75.0303 203.909 75.1364C203.258 75.2273 202.667 75.3106 202.136 75.3864C201 75.553 200.008 75.8182 199.159 76.1818C198.311 76.5455 197.652 77.0379 197.182 77.6591C196.712 78.2652 196.477 79.0227 196.477 79.9318C196.477 81.25 196.955 82.2576 197.909 82.9545C198.879 83.6364 200.106 83.9773 201.591 83.9773ZM226.17 90V43.4545H235.852V60.9545H236.148C236.572 60.0152 237.186 59.0606 237.989 58.0909C238.807 57.1061 239.867 56.2879 241.17 55.6364C242.489 54.9697 244.125 54.6364 246.08 54.6364C248.625 54.6364 250.973 55.303 253.125 56.6364C255.277 57.9545 256.996 59.947 258.284 62.6136C259.572 65.2652 260.216 68.5909 260.216 72.5909C260.216 76.4848 259.587 79.7727 258.33 82.4545C257.087 85.1212 255.39 87.1439 253.239 88.5227C251.102 89.8864 248.708 90.5682 246.057 90.5682C244.178 90.5682 242.58 90.2576 241.261 89.6364C239.958 89.0152 238.89 88.2348 238.057 87.2955C237.223 86.3409 236.587 85.3788 236.148 84.4091H235.716V90H226.17ZM235.648 72.5455C235.648 74.6212 235.936 76.4318 236.511 77.9773C237.087 79.5227 237.92 80.7273 239.011 81.5909C240.102 82.4394 241.428 82.8636 242.989 82.8636C244.564 82.8636 245.898 82.4318 246.989 81.5682C248.08 80.6894 248.905 79.4773 249.466 77.9318C250.042 76.3712 250.33 74.5758 250.33 72.5455C250.33 70.5303 250.049 68.7576 249.489 67.2273C248.928 65.697 248.102 64.5 247.011 63.6364C245.92 62.7727 244.58 62.3409 242.989 62.3409C241.413 62.3409 240.08 62.7576 238.989 63.5909C237.913 64.4242 237.087 65.6061 236.511 67.1364C235.936 68.6667 235.648 70.4697 235.648 72.5455ZM276.358 43.4545V90H266.676V43.4545H276.358ZM300.023 90.6818C296.432 90.6818 293.341 89.9545 290.75 88.5C288.174 87.0303 286.189 84.9545 284.795 82.2727C283.402 79.5758 282.705 76.3864 282.705 72.7045C282.705 69.1136 283.402 65.9621 284.795 63.25C286.189 60.5379 288.152 58.4242 290.682 56.9091C293.227 55.3939 296.212 54.6364 299.636 54.6364C301.939 54.6364 304.083 55.0076 306.068 55.75C308.068 56.4773 309.811 57.5758 311.295 59.0455C312.795 60.5152 313.962 62.3636 314.795 64.5909C315.629 66.803 316.045 69.3939 316.045 72.3636V75.0227H286.568V69.0227H306.932C306.932 67.6288 306.629 66.3939 306.023 65.3182C305.417 64.2424 304.576 63.4015 303.5 62.7955C302.439 62.1742 301.205 61.8636 299.795 61.8636C298.326 61.8636 297.023 62.2045 295.886 62.8864C294.765 63.553 293.886 64.4545 293.25 65.5909C292.614 66.7121 292.288 67.9621 292.273 69.3409V75.0455C292.273 76.7727 292.591 78.2652 293.227 79.5227C293.879 80.7803 294.795 81.75 295.977 82.4318C297.159 83.1136 298.561 83.4545 300.182 83.4545C301.258 83.4545 302.242 83.303 303.136 83C304.03 82.697 304.795 82.2424 305.432 81.6364C306.068 81.0303 306.553 80.2879 306.886 79.4091L315.841 80C315.386 82.1515 314.455 84.0303 313.045 85.6364C311.652 87.2273 309.848 88.4697 307.636 89.3636C305.439 90.2424 302.902 90.6818 300.023 90.6818ZM327.705 43.4545L338.955 78.8182H339.386L350.659 43.4545H361.568L345.523 90H332.841L316.773 43.4545H327.705ZM366.989 90V55.0909H376.67V90H366.989ZM371.852 50.5909C370.413 50.5909 369.178 50.1136 368.148 49.1591C367.133 48.1894 366.625 47.0303 366.625 45.6818C366.625 44.3485 367.133 43.2045 368.148 42.25C369.178 41.2803 370.413 40.7955 371.852 40.7955C373.292 40.7955 374.519 41.2803 375.534 42.25C376.564 43.2045 377.08 44.3485 377.08 45.6818C377.08 47.0303 376.564 48.1894 375.534 49.1591C374.519 50.1136 373.292 50.5909 371.852 50.5909ZM413.472 65.0455L404.608 65.5909C404.456 64.8333 404.131 64.1515 403.631 63.5455C403.131 62.9242 402.472 62.4318 401.653 62.0682C400.85 61.6894 399.888 61.5 398.767 61.5C397.267 61.5 396.002 61.8182 394.972 62.4545C393.941 63.0758 393.426 63.9091 393.426 64.9545C393.426 65.7879 393.759 66.4924 394.426 67.0682C395.093 67.6439 396.237 68.1061 397.858 68.4545L404.176 69.7273C407.57 70.4242 410.1 71.5455 411.767 73.0909C413.434 74.6364 414.267 76.6667 414.267 79.1818C414.267 81.4697 413.593 83.4773 412.244 85.2045C410.911 86.9318 409.078 88.2803 406.744 89.25C404.426 90.2045 401.752 90.6818 398.722 90.6818C394.1 90.6818 390.419 89.7197 387.676 87.7955C384.949 85.8561 383.35 83.2197 382.881 79.8864L392.403 79.3864C392.691 80.7955 393.388 81.8712 394.494 82.6136C395.6 83.3409 397.017 83.7045 398.744 83.7045C400.441 83.7045 401.805 83.3788 402.835 82.7273C403.881 82.0606 404.411 81.2045 404.426 80.1591C404.411 79.2803 404.04 78.5606 403.312 78C402.585 77.4242 401.464 76.9848 399.949 76.6818L393.903 75.4773C390.494 74.7955 387.956 73.6136 386.29 71.9318C384.638 70.25 383.812 68.1061 383.812 65.5C383.812 63.2576 384.419 61.3258 385.631 59.7045C386.858 58.0833 388.578 56.8333 390.79 55.9545C393.017 55.0758 395.623 54.6364 398.608 54.6364C403.017 54.6364 406.487 55.5682 409.017 57.4318C411.563 59.2955 413.047 61.8333 413.472 65.0455ZM420.364 90V55.0909H430.045V90H420.364ZM425.227 50.5909C423.788 50.5909 422.553 50.1136 421.523 49.1591C420.508 48.1894 420 47.0303 420 45.6818C420 44.3485 420.508 43.2045 421.523 42.25C422.553 41.2803 423.788 40.7955 425.227 40.7955C426.667 40.7955 427.894 41.2803 428.909 42.25C429.939 43.2045 430.455 44.3485 430.455 45.6818C430.455 47.0303 429.939 48.1894 428.909 49.1591C427.894 50.1136 426.667 50.5909 425.227 50.5909ZM453.574 90.6818C450.044 90.6818 446.991 89.9318 444.415 88.4318C441.854 86.9167 439.877 84.8106 438.483 82.1136C437.089 79.4015 436.392 76.2576 436.392 72.6818C436.392 69.0758 437.089 65.9242 438.483 63.2273C439.877 60.5152 441.854 58.4091 444.415 56.9091C446.991 55.3939 450.044 54.6364 453.574 54.6364C457.104 54.6364 460.15 55.3939 462.71 56.9091C465.286 58.4091 467.271 60.5152 468.665 63.2273C470.059 65.9242 470.756 69.0758 470.756 72.6818C470.756 76.2576 470.059 79.4015 468.665 82.1136C467.271 84.8106 465.286 86.9167 462.71 88.4318C460.15 89.9318 457.104 90.6818 453.574 90.6818ZM453.619 83.1818C455.225 83.1818 456.566 82.7273 457.642 81.8182C458.718 80.8939 459.528 79.6364 460.074 78.0455C460.634 76.4545 460.915 74.6439 460.915 72.6136C460.915 70.5833 460.634 68.7727 460.074 67.1818C459.528 65.5909 458.718 64.3333 457.642 63.4091C456.566 62.4848 455.225 62.0227 453.619 62.0227C451.998 62.0227 450.634 62.4848 449.528 63.4091C448.438 64.3333 447.612 65.5909 447.051 67.1818C446.506 68.7727 446.233 70.5833 446.233 72.6136C446.233 74.6439 446.506 76.4545 447.051 78.0455C447.612 79.6364 448.438 80.8939 449.528 81.8182C450.634 82.7273 451.998 83.1818 453.619 83.1818ZM486.733 69.8182V90H477.051V55.0909H486.278V61.25H486.688C487.46 59.2197 488.756 57.6136 490.574 56.4318C492.392 55.2348 494.597 54.6364 497.188 54.6364C499.612 54.6364 501.725 55.1667 503.528 56.2273C505.331 57.2879 506.733 58.803 507.733 60.7727C508.733 62.7273 509.233 65.0606 509.233 67.7727V90H499.551V69.5C499.566 67.3636 499.021 65.697 497.915 64.5C496.809 63.2879 495.286 62.6818 493.347 62.6818C492.044 62.6818 490.892 62.9621 489.892 63.5227C488.907 64.0833 488.134 64.9015 487.574 65.9773C487.028 67.0379 486.748 68.3182 486.733 69.8182Z" fill="black"/>
</g>
<defs>
<filter id="filter0_d_2507_355" x="34" y="34" width="32" height="33" filterUnits="userSpaceOnUse" color-interpolation-filters="sRGB">
<feFlood flood-opacity="0" result="BackgroundImageFix"/>
<feColorMatrix in="SourceAlpha" type="matrix" values="0 0 0 0 0 0 0 0 0 0 0 0 0 0 0 0 0 0 127 0" result="hardAlpha"/>
<feOffset dy="4"/>
<feGaussianBlur stdDeviation="2"/>
<feComposite in2="hardAlpha" operator="out"/>
<feColorMatrix type="matrix" values="0 0 0 0 0 0 0 0 0 0 0 0 0 0 0 0 0 0 0.25 0"/>
<feBlend mode="normal" in2="BackgroundImageFix" result="effect1_dropShadow_2507_355"/>
<feBlend mode="normal" in="SourceGraphic" in2="effect1_dropShadow_2507_355" result="shape"/>
</filter>
<filter id="filter1_d_2507_355" x="34" y="67" width="32" height="33" filterUnits="userSpaceOnUse" color-interpolation-filters="sRGB">
<feFlood flood-opacity="0" result="BackgroundImageFix"/>
<feColorMatrix in="SourceAlpha" type="matrix" values="0 0 0 0 0 0 0 0 0 0 0 0 0 0 0 0 0 0 127 0" result="hardAlpha"/>
<feOffset dy="4"/>
<feGaussianBlur stdDeviation="2"/>
<feComposite in2="hardAlpha" operator="out"/>
<feColorMatrix type="matrix" values="0 0 0 0 0 0 0 0 0 0 0 0 0 0 0 0 0 0 0.25 0"/>
<feBlend mode="normal" in2="BackgroundImageFix" result="effect1_dropShadow_2507_355"/>
<feBlend mode="normal" in="SourceGraphic" in2="effect1_dropShadow_2507_355" result="shape"/>
</filter>
<filter id="filter2_d_2507_355" x="68" y="67" width="32" height="33" filterUnits="userSpaceOnUse" color-interpolation-filters="sRGB">
<feFlood flood-opacity="0" result="BackgroundImageFix"/>
<feColorMatrix in="SourceAlpha" type="matrix" values="0 0 0 0 0 0 0 0 0 0 0 0 0 0 0 0 0 0 127 0" result="hardAlpha"/>
<feOffset dy="4"/>
<feGaussianBlur stdDeviation="2"/>
<feComposite in2="hardAlpha" operator="out"/>
<feColorMatrix type="matrix" values="0 0 0 0 0 0 0 0 0 0 0 0 0 0 0 0 0 0 0.25 0"/>
<feBlend mode="normal" in2="BackgroundImageFix" result="effect1_dropShadow_2507_355"/>
<feBlend mode="normal" in="SourceGraphic" in2="effect1_dropShadow_2507_355" result="shape"/>
</filter>
<filter id="filter3_d_2507_355" x="68" y="34" width="32" height="33" filterUnits="userSpaceOnUse" color-interpolation-filters="sRGB">
<feFlood flood-opacity="0" result="BackgroundImageFix"/>
<feColorMatrix in="SourceAlpha" type="matrix" values="0 0 0 0 0 0 0 0 0 0 0 0 0 0 0 0 0 0 127 0" result="hardAlpha"/>
<feOffset dy="4"/>
<feGaussianBlur stdDeviation="2"/>
<feComposite in2="hardAlpha" operator="out"/>
<feColorMatrix type="matrix" values="0 0 0 0 0 0 0 0 0 0 0 0 0 0 0 0 0 0 0.25 0"/>
<feBlend mode="normal" in2="BackgroundImageFix" result="effect1_dropShadow_2507_355"/>
<feBlend mode="normal" in="SourceGraphic" in2="effect1_dropShadow_2507_355" result="shape"/>
</filter>
<filter id="filter4_d_2507_355" x="39" y="12" width="22" height="22" filterUnits="userSpaceOnUse" color-interpolation-filters="sRGB">
<feFlood flood-opacity="0" result="BackgroundImageFix"/>
<feColorMatrix in="SourceAlpha" type="matrix" values="0 0 0 0 0 0 0 0 0 0 0 0 0 0 0 0 0 0 127 0" result="hardAlpha"/>
<feOffset dy="4"/>
<feGaussianBlur stdDeviation="2"/>
<feComposite in2="hardAlpha" operator="out"/>
<feColorMatrix type="matrix" values="0 0 0 0 0 0 0 0 0 0 0 0 0 0 0 0 0 0 0.25 0"/>
<feBlend mode="normal" in2="BackgroundImageFix" result="effect1_dropShadow_2507_355"/>
<feBlend mode="normal" in="SourceGraphic" in2="effect1_dropShadow_2507_355" result="shape"/>
</filter>
<filter id="filter5_d_2507_355" x="100" y="39" width="22" height="22" filterUnits="userSpaceOnUse" color-interpolation-filters="sRGB">
<feFlood flood-opacity="0" result="BackgroundImageFix"/>
<feColorMatrix in="SourceAlpha" type="matrix" values="0 0 0 0 0 0 0 0 0 0 0 0 0 0 0 0 0 0 127 0" result="hardAlpha"/>
<feOffset dy="4"/>
<feGaussianBlur stdDeviation="2"/>
<feComposite in2="hardAlpha" operator="out"/>
<feColorMatrix type="matrix" values="0 0 0 0 0 0 0 0 0 0 0 0 0 0 0 0 0 0 0.25 0"/>
<feBlend mode="normal" in2="BackgroundImageFix" result="effect1_dropShadow_2507_355"/>
<feBlend mode="normal" in="SourceGraphic" in2="effect1_dropShadow_2507_355" result="shape"/>
</filter>
<filter id="filter6_d_2507_355" x="100" y="72" width="22" height="22" filterUnits="userSpaceOnUse" color-interpolation-filters="sRGB">
<feFlood flood-opacity="0" result="BackgroundImageFix"/>
<feColorMatrix in="SourceAlpha" type="matrix" values="0 0 0 0 0 0 0 0 0 0 0 0 0 0 0 0 0 0 127 0" result="hardAlpha"/>
<feOffset dy="4"/>
<feGaussianBlur stdDeviation="2"/>
<feComposite in2="hardAlpha" operator="out"/>
<feColorMatrix type="matrix" values="0 0 0 0 0 0 0 0 0 0 0 0 0 0 0 0 0 0 0.25 0"/>
<feBlend mode="normal" in2="BackgroundImageFix" result="effect1_dropShadow_2507_355"/>
<feBlend mode="normal" in="SourceGraphic" in2="effect1_dropShadow_2507_355" result="shape"/>
</filter>
<filter id="filter7_d_2507_355" x="100" y="102" width="22" height="22" filterUnits="userSpaceOnUse" color-interpolation-filters="sRGB">
<feFlood flood-opacity="0" result="BackgroundImageFix"/>
<feColorMatrix in="SourceAlpha" type="matrix" values="0 0 0 0 0 0 0 0 0 0 0 0 0 0 0 0 0 0 127 0" result="hardAlpha"/>
<feOffset dy="4"/>
<feGaussianBlur stdDeviation="2"/>
<feComposite in2="hardAlpha" operator="out"/>
<feColorMatrix type="matrix" values="0 0 0 0 0 0 0 0 0 0 0 0 0 0 0 0 0 0 0.25 0"/>
<feBlend mode="normal" in2="BackgroundImageFix" result="effect1_dropShadow_2507_355"/>
<feBlend mode="normal" in="SourceGraphic" in2="effect1_dropShadow_2507_355" result="shape"/>
</filter>
<filter id="filter8_d_2507_355" x="73" y="102" width="22" height="22" filterUnits="userSpaceOnUse" color-interpolation-filters="sRGB">
<feFlood flood-opacity="0" result="BackgroundImageFix"/>
<feColorMatrix in="SourceAlpha" type="matrix" values="0 0 0 0 0 0 0 0 0 0 0 0 0 0 0 0 0 0 127 0" result="hardAlpha"/>
<feOffset dy="4"/>
<feGaussianBlur stdDeviation="2"/>
<feComposite in2="hardAlpha" operator="out"/>
<feColorMatrix type="matrix" values="0 0 0 0 0 0 0 0 0 0 0 0 0 0 0 0 0 0 0.25 0"/>
<feBlend mode="normal" in2="BackgroundImageFix" result="effect1_dropShadow_2507_355"/>
<feBlend mode="normal" in="SourceGraphic" in2="effect1_dropShadow_2507_355" result="shape"/>
</filter>
<filter id="filter9_d_2507_355" x="39" y="102" width="22" height="22" filterUnits="userSpaceOnUse" color-interpolation-filters="sRGB">
<feFlood flood-opacity="0" result="BackgroundImageFix"/>
<feColorMatrix in="SourceAlpha" type="matrix" values="0 0 0 0 0 0 0 0 0 0 0 0 0 0 0 0 0 0 127 0" result="hardAlpha"/>
<feOffset dy="4"/>
<feGaussianBlur stdDeviation="2"/>
<feComposite in2="hardAlpha" operator="out"/>
<feColorMatrix type="matrix" values="0 0 0 0 0 0 0 0 0 0 0 0 0 0 0 0 0 0 0.25 0"/>
<feBlend mode="normal" in2="BackgroundImageFix" result="effect1_dropShadow_2507_355"/>
<feBlend mode="normal" in="SourceGraphic" in2="effect1_dropShadow_2507_355" result="shape"/>
</filter>
<filter id="filter10_d_2507_355" x="12" y="102" width="22" height="22" filterUnits="userSpaceOnUse" color-interpolation-filters="sRGB">
<feFlood flood-opacity="0" result="BackgroundImageFix"/>
<feColorMatrix in="SourceAlpha" type="matrix" values="0 0 0 0 0 0 0 0 0 0 0 0 0 0 0 0 0 0 127 0" result="hardAlpha"/>
<feOffset dy="4"/>
<feGaussianBlur stdDeviation="2"/>
<feComposite in2="hardAlpha" operator="out"/>
<feColorMatrix type="matrix" values="0 0 0 0 0 0 0 0 0 0 0 0 0 0 0 0 0 0 0.25 0"/>
<feBlend mode="normal" in2="BackgroundImageFix" result="effect1_dropShadow_2507_355"/>
<feBlend mode="normal" in="SourceGraphic" in2="effect1_dropShadow_2507_355" result="shape"/>
</filter>
<filter id="filter11_d_2507_355" x="12" y="72" width="22" height="22" filterUnits="userSpaceOnUse" color-interpolation-filters="sRGB">
<feFlood flood-opacity="0" result="BackgroundImageFix"/>
<feColorMatrix in="SourceAlpha" type="matrix" values="0 0 0 0 0 0 0 0 0 0 0 0 0 0 0 0 0 0 127 0" result="hardAlpha"/>
<feOffset dy="4"/>
<feGaussianBlur stdDeviation="2"/>
<feComposite in2="hardAlpha" operator="out"/>
<feColorMatrix type="matrix" values="0 0 0 0 0 0 0 0 0 0 0 0 0 0 0 0 0 0 0.25 0"/>
<feBlend mode="normal" in2="BackgroundImageFix" result="effect1_dropShadow_2507_355"/>
<feBlend mode="normal" in="SourceGraphic" in2="effect1_dropShadow_2507_355" result="shape"/>
</filter>
<filter id="filter12_d_2507_355" x="12" y="42" width="22" height="22" filterUnits="userSpaceOnUse" color-interpolation-filters="sRGB">
<feFlood flood-opacity="0" result="BackgroundImageFix"/>
<feColorMatrix in="SourceAlpha" type="matrix" values="0 0 0 0 0 0 0 0 0 0 0 0 0 0 0 0 0 0 127 0" result="hardAlpha"/>
<feOffset dy="4"/>
<feGaussianBlur stdDeviation="2"/>
<feComposite in2="hardAlpha" operator="out"/>
<feColorMatrix type="matrix" values="0 0 0 0 0 0 0 0 0 0 0 0 0 0 0 0 0 0 0.25 0"/>
<feBlend mode="normal" in2="BackgroundImageFix" result="effect1_dropShadow_2507_355"/>
<feBlend mode="normal" in="SourceGraphic" in2="effect1_dropShadow_2507_355" result="shape"/>
</filter>
<filter id="filter13_d_2507_355" x="12" y="12" width="22" height="22" filterUnits="userSpaceOnUse" color-interpolation-filters="sRGB">
<feFlood flood-opacity="0" result="BackgroundImageFix"/>
<feColorMatrix in="SourceAlpha" type="matrix" values="0 0 0 0 0 0 0 0 0 0 0 0 0 0 0 0 0 0 127 0" result="hardAlpha"/>
<feOffset dy="4"/>
<feGaussianBlur stdDeviation="2"/>
<feComposite in2="hardAlpha" operator="out"/>
<feColorMatrix type="matrix" values="0 0 0 0 0 0 0 0 0 0 0 0 0 0 0 0 0 0 0.25 0"/>
<feBlend mode="normal" in2="BackgroundImageFix" result="effect1_dropShadow_2507_355"/>
<feBlend mode="normal" in="SourceGraphic" in2="effect1_dropShadow_2507_355" result="shape"/>
</filter>
<filter id="filter14_d_2507_355" x="100" y="12" width="22" height="22" filterUnits="userSpaceOnUse" color-interpolation-filters="sRGB">
<feFlood flood-opacity="0" result="BackgroundImageFix"/>
<feColorMatrix in="SourceAlpha" type="matrix" values="0 0 0 0 0 0 0 0 0 0 0 0 0 0 0 0 0 0 127 0" result="hardAlpha"/>
<feOffset dy="4"/>
<feGaussianBlur stdDeviation="2"/>
<feComposite in2="hardAlpha" operator="out"/>
<feColorMatrix type="matrix" values="0 0 0 0 0 0 0 0 0 0 0 0 0 0 0 0 0 0 0.25 0"/>
<feBlend mode="normal" in2="BackgroundImageFix" result="effect1_dropShadow_2507_355"/>
<feBlend mode="normal" in="SourceGraphic" in2="effect1_dropShadow_2507_355" result="shape"/>
</filter>
<filter id="filter15_d_2507_355" x="73" y="12" width="22" height="22" filterUnits="userSpaceOnUse" color-interpolation-filters="sRGB">
<feFlood flood-opacity="0" result="BackgroundImageFix"/>
<feColorMatrix in="SourceAlpha" type="matrix" values="0 0 0 0 0 0 0 0 0 0 0 0 0 0 0 0 0 0 127 0" result="hardAlpha"/>
<feOffset dy="4"/>
<feGaussianBlur stdDeviation="2"/>
<feComposite in2="hardAlpha" operator="out"/>
<feColorMatrix type="matrix" values="0 0 0 0 0 0 0 0 0 0 0 0 0 0 0 0 0 0 0.25 0"/>
<feBlend mode="normal" in2="BackgroundImageFix" result="effect1_dropShadow_2507_355"/>
<feBlend mode="normal" in="SourceGraphic" in2="effect1_dropShadow_2507_355" result="shape"/>
</filter>
<filter id="filter16_d_2507_355" x="76" y="0" width="15" height="15" filterUnits="userSpaceOnUse" color-interpolation-filters="sRGB">
<feFlood flood-opacity="0" result="BackgroundImageFix"/>
<feColorMatrix in="SourceAlpha" type="matrix" values="0 0 0 0 0 0 0 0 0 0 0 0 0 0 0 0 0 0 127 0" result="hardAlpha"/>
<feOffset dy="4"/>
<feGaussianBlur stdDeviation="2"/>
<feComposite in2="hardAlpha" operator="out"/>
<feColorMatrix type="matrix" values="0 0 0 0 0 0 0 0 0 0 0 0 0 0 0 0 0 0 0.25 0"/>
<feBlend mode="normal" in2="BackgroundImageFix" result="effect1_dropShadow_2507_355"/>
<feBlend mode="normal" in="SourceGraphic" in2="effect1_dropShadow_2507_355" result="shape"/>
</filter>
<filter id="filter17_d_2507_355" x="119" y="42" width="15" height="15" filterUnits="userSpaceOnUse" color-interpolation-filters="sRGB">
<feFlood flood-opacity="0" result="BackgroundImageFix"/>
<feColorMatrix in="SourceAlpha" type="matrix" values="0 0 0 0 0 0 0 0 0 0 0 0 0 0 0 0 0 0 127 0" result="hardAlpha"/>
<feOffset dy="4"/>
<feGaussianBlur stdDeviation="2"/>
<feComposite in2="hardAlpha" operator="out"/>
<feColorMatrix type="matrix" values="0 0 0 0 0 0 0 0 0 0 0 0 0 0 0 0 0 0 0.25 0"/>
<feBlend mode="normal" in2="BackgroundImageFix" result="effect1_dropShadow_2507_355"/>
<feBlend mode="normal" in="SourceGraphic" in2="effect1_dropShadow_2507_355" result="shape"/>
</filter>
<filter id="filter18_d_2507_355" x="119" y="76" width="15" height="15" filterUnits="userSpaceOnUse" color-interpolation-filters="sRGB">
<feFlood flood-opacity="0" result="BackgroundImageFix"/>
<feColorMatrix in="SourceAlpha" type="matrix" values="0 0 0 0 0 0 0 0 0 0 0 0 0 0 0 0 0 0 127 0" result="hardAlpha"/>
<feOffset dy="4"/>
<feGaussianBlur stdDeviation="2"/>
<feComposite in2="hardAlpha" operator="out"/>
<feColorMatrix type="matrix" values="0 0 0 0 0 0 0 0 0 0 0 0 0 0 0 0 0 0 0.25 0"/>
<feBlend mode="normal" in2="BackgroundImageFix" result="effect1_dropShadow_2507_355"/>
<feBlend mode="normal" in="SourceGraphic" in2="effect1_dropShadow_2507_355" result="shape"/>
</filter>
<filter id="filter19_d_2507_355" x="76" y="121" width="15" height="15" filterUnits="userSpaceOnUse" color-interpolation-filters="sRGB">
<feFlood flood-opacity="0" result="BackgroundImageFix"/>
<feColorMatrix in="SourceAlpha" type="matrix" values="0 0 0 0 0 0 0 0 0 0 0 0 0 0 0 0 0 0 127 0" result="hardAlpha"/>
<feOffset dy="4"/>
<feGaussianBlur stdDeviation="2"/>
<feComposite in2="hardAlpha" operator="out"/>
<feColorMatrix type="matrix" values="0 0 0 0 0 0 0 0 0 0 0 0 0 0 0 0 0 0 0.25 0"/>
<feBlend mode="normal" in2="BackgroundImageFix" result="effect1_dropShadow_2507_355"/>
<feBlend mode="normal" in="SourceGraphic" in2="effect1_dropShadow_2507_355" result="shape"/>
</filter>
<filter id="filter20_d_2507_355" x="42" y="121" width="15" height="15" filterUnits="userSpaceOnUse" color-interpolation-filters="sRGB">
<feFlood flood-opacity="0" result="BackgroundImageFix"/>
<feColorMatrix in="SourceAlpha" type="matrix" values="0 0 0 0 0 0 0 0 0 0 0 0 0 0 0 0 0 0 127 0" result="hardAlpha"/>
<feOffset dy="4"/>
<feGaussianBlur stdDeviation="2"/>
<feComposite in2="hardAlpha" operator="out"/>
<feColorMatrix type="matrix" values="0 0 0 0 0 0 0 0 0 0 0 0 0 0 0 0 0 0 0.25 0"/>
<feBlend mode="normal" in2="BackgroundImageFix" result="effect1_dropShadow_2507_355"/>
<feBlend mode="normal" in="SourceGraphic" in2="effect1_dropShadow_2507_355" result="shape"/>
</filter>
<filter id="filter21_d_2507_355" x="0" y="76" width="15" height="15" filterUnits="userSpaceOnUse" color-interpolation-filters="sRGB">
<feFlood flood-opacity="0" result="BackgroundImageFix"/>
<feColorMatrix in="SourceAlpha" type="matrix" values="0 0 0 0 0 0 0 0 0 0 0 0 0 0 0 0 0 0 127 0" result="hardAlpha"/>
<feOffset dy="4"/>
<feGaussianBlur stdDeviation="2"/>
<feComposite in2="hardAlpha" operator="out"/>
<feColorMatrix type="matrix" values="0 0 0 0 0 0 0 0 0 0 0 0 0 0 0 0 0 0 0.25 0"/>
<feBlend mode="normal" in2="BackgroundImageFix" result="effect1_dropShadow_2507_355"/>
<feBlend mode="normal" in="SourceGraphic" in2="effect1_dropShadow_2507_355" result="shape"/>
</filter>
<filter id="filter22_d_2507_355" x="0" y="46" width="15" height="15" filterUnits="userSpaceOnUse" color-interpolation-filters="sRGB">
<feFlood flood-opacity="0" result="BackgroundImageFix"/>
<feColorMatrix in="SourceAlpha" type="matrix" values="0 0 0 0 0 0 0 0 0 0 0 0 0 0 0 0 0 0 127 0" result="hardAlpha"/>
<feOffset dy="4"/>
<feGaussianBlur stdDeviation="2"/>
<feComposite in2="hardAlpha" operator="out"/>
<feColorMatrix type="matrix" values="0 0 0 0 0 0 0 0 0 0 0 0 0 0 0 0 0 0 0.25 0"/>
<feBlend mode="normal" in2="BackgroundImageFix" result="effect1_dropShadow_2507_355"/>
<feBlend mode="normal" in="SourceGraphic" in2="effect1_dropShadow_2507_355" result="shape"/>
</filter>
<filter id="filter23_d_2507_355" x="42" y="0" width="15" height="15" filterUnits="userSpaceOnUse" color-interpolation-filters="sRGB">
<feFlood flood-opacity="0" result="BackgroundImageFix"/>
<feColorMatrix in="SourceAlpha" type="matrix" values="0 0 0 0 0 0 0 0 0 0 0 0 0 0 0 0 0 0 127 0" result="hardAlpha"/>
<feOffset dy="4"/>
<feGaussianBlur stdDeviation="2"/>
<feComposite in2="hardAlpha" operator="out"/>
<feColorMatrix type="matrix" values="0 0 0 0 0 0 0 0 0 0 0 0 0 0 0 0 0 0 0.25 0"/>
<feBlend mode="normal" in2="BackgroundImageFix" result="effect1_dropShadow_2507_355"/>
<feBlend mode="normal" in="SourceGraphic" in2="effect1_dropShadow_2507_355" result="shape"/>
</filter>
<filter id="filter24_d_2507_355" x="145.273" y="40.7955" width="367.96" height="57.8864" filterUnits="userSpaceOnUse" color-interpolation-filters="sRGB">
<feFlood flood-opacity="0" result="BackgroundImageFix"/>
<feColorMatrix in="SourceAlpha" type="matrix" values="0 0 0 0 0 0 0 0 0 0 0 0 0 0 0 0 0 0 127 0" result="hardAlpha"/>
<feOffset dy="4"/>
<feGaussianBlur stdDeviation="2"/>
<feComposite in2="hardAlpha" operator="out"/>
<feColorMatrix type="matrix" values="0 0 0 0 0 0 0 0 0 0 0 0 0 0 0 0 0 0 0.25 0"/>
<feBlend mode="normal" in2="BackgroundImageFix" result="effect1_dropShadow_2507_355"/>
<feBlend mode="normal" in="SourceGraphic" in2="effect1_dropShadow_2507_355" result="shape"/>
</filter>
</defs>
</svg>
